<svg xmlns="http://www.w3.org/2000/svg" viewBox="0 0 32 32">
  <circle cx="16" cy="16" r="14" fill="#d4952a"/>
  <circle cx="16" cy="16" r="14" fill="url(#g)"/>
  <circle cx="16" cy="16" r="5" fill="#f4efe6"/>
  <ellipse cx="11" cy="9" rx="1.2" ry="0.7" transform="rotate(-20 11 9)" fill="#f5e6c8" opacity="0.8"/>
  <ellipse cx="20" cy="8" rx="1.1" ry="0.6" transform="rotate(15 20 8)" fill="#f5e6c8" opacity="0.8"/>
  <ellipse cx="23" cy="14" rx="1.2" ry="0.7" transform="rotate(50 23 14)" fill="#f5e6c8" opacity="0.8"/>
  <ellipse cx="21" cy="22" rx="1.1" ry="0.7" transform="rotate(-30 21 22)" fill="#f5e6c8" opacity="0.8"/>
  <ellipse cx="13" cy="23" rx="1.2" ry="0.6" transform="rotate(20 13 23)" fill="#f5e6c8" opacity="0.8"/>
  <ellipse cx="7" cy="17" rx="1.1" ry="0.7" transform="rotate(-45 7 17)" fill="#f5e6c8" opacity="0.8"/>
  <ellipse cx="10" cy="9.5" rx="0.9" ry="0.5" transform="rotate(40 10 9.5)" fill="#4a3520" opacity="0.6"/>
  <ellipse cx="18" cy="7.5" rx="0.8" ry="0.5" transform="rotate(-10 18 7.5)" fill="#4a3520" opacity="0.6"/>
  <ellipse cx="24" cy="16" rx="0.9" ry="0.5" transform="rotate(70 24 16)" fill="#4a3520" opacity="0.6"/>
  <ellipse cx="19" cy="24" rx="0.8" ry="0.5" transform="rotate(10 19 24)" fill="#4a3520" opacity="0.6"/>
  <ellipse cx="8" cy="20" rx="0.9" ry="0.5" transform="rotate(-60 8 20)" fill="#4a3520" opacity="0.6"/>
  <defs>
    <radialGradient id="g" cx="40%" cy="35%" r="60%">
      <stop offset="0%" stop-color="#e8b84b" stop-opacity="0.6"/>
      <stop offset="100%" stop-color="#9a6220" stop-opacity="0.4"/>
    </radialGradient>
  </defs>
</svg>
